<?xml version="1.0" standalone="no"?>
<!DOCTYPE svg PUBLIC "-//W3C//DTD SVG 20010904//EN"
 "http://www.w3.org/TR/2001/REC-SVG-20010904/DTD/svg10.dtd">
<svg version="1.0" xmlns="http://www.w3.org/2000/svg"
 width="1024.000000pt" height="1024.000000pt" viewBox="0 0 1024.000000 1024.000000"
 preserveAspectRatio="xMidYMid meet">

<g transform="translate(0.000000,1024.000000) scale(0.100000,-0.100000)"
fill="#000000" stroke="none">
<path d="M4966 8570 c-143 -37 -296 -139 -385 -257 -87 -116 -124 -327 -84
-479 l19 -72 -96 -47 c-309 -153 -580 -400 -790 -720 -99 -152 -221 -424 -290
-647 l-23 -76 -48 45 c-60 57 -96 79 -176 109 -277 104 -518 -3 -578 -257 -62
-265 92 -552 375 -698 41 -21 92 -44 113 -51 20 -6 37 -17 37 -24 0 -27 -291
-575 -374 -704 -13 -21 -32 -62 -41 -92 -10 -30 -24 -63 -33 -72 -11 -14 -12
-21 -3 -32 10 -11 4 -30 -28 -93 -127 -251 -201 -564 -201 -856 l0 -105 -31
-12 c-46 -19 -112 -89 -142 -151 -59 -119 -68 -252 -26 -365 33 -88 82 -115
154 -84 29 12 33 11 62 -19 43 -43 93 -43 135 -1 27 28 31 29 51 15 51 -36
121 -1 152 77 22 57 30 168 16 243 -24 130 -119 265 -218 313 -35 17 -36 21
-33 127 2 91 31 288 56 389 29 116 119 360 160 437 19 36 38 57 56 63 15 5 30
7 33 5 3 -3 -6 -33 -19 -65 -46 -112 -59 -219 -53 -424 8 -311 62 -489 208
-695 295 -413 750 -627 1534 -720 72 -9 159 -20 195 -25 111 -17 660 -24 841
-11 895 65 1457 290 1766 705 178 240 237 414 249 731 7 196 -7 315 -54 458
-16 48 -28 87 -25 87 2 0 27 -14 57 -30 63 -36 80 -67 162 -291 75 -208 124
-468 124 -656 l0 -68 -51 -30 c-181 -106 -265 -399 -164 -571 33 -56 89 -77
130 -50 25 17 27 16 54 -13 41 -44 100 -44 144 0 30 30 31 31 58 15 41 -24 67
-20 104 17 49 49 69 126 63 247 -4 82 -10 108 -36 165 -40 84 -78 133 -131
165 -29 18 -41 32 -41 50 -2 101 -23 340 -35 410 -35 191 -102 389 -187 552
-32 63 -38 80 -29 97 10 17 -4 45 -92 193 -222 374 -289 489 -332 580 -19 40
-35 80 -35 89 0 12 19 24 63 38 97 32 184 89 267 172 89 90 141 174 176 286
23 72 26 96 22 186 -3 92 -7 110 -36 169 -38 78 -101 140 -180 176 -82 38
-220 43 -312 12 -84 -28 -157 -70 -217 -124 l-47 -43 -32 96 c-77 236 -203
500 -323 681 -136 205 -350 439 -483 528 -81 55 -254 147 -325 174 -41 16 -42
17 -33 45 13 38 28 188 23 238 -15 162 -76 298 -177 392 -67 64 -173 121 -271
147 -99 27 -246 29 -339 6z m283 -145 c118 -31 221 -105 275 -197 14 -25 36
-83 47 -128 19 -75 20 -93 11 -178 -6 -52 -13 -97 -16 -99 -3 -3 -42 2 -88 11
-157 30 -269 39 -423 32 -132 -5 -186 -12 -336 -41 -36 -7 -36 -7 -48 39 -28
112 -6 268 52 365 98 164 326 250 526 196z m81 -735 c537 -62 1040 -467 1300
-1048 73 -164 207 -561 260 -772 35 -139 117 -402 156 -502 55 -141 131 -286
238 -457 53 -85 94 -156 91 -159 -6 -6 -128 107 -219 202 -77 80 -222 254
-326 391 -269 352 -423 483 -683 579 -234 87 -486 132 -822 147 -419 19 -632
3 -935 -72 -244 -60 -454 -155 -621 -282 -158 -119 -236 -197 -333 -336 -83
-117 -431 -497 -492 -537 -13 -9 -21 -21 -17 -27 3 -6 1 -7 -5 -3 -7 4 -12 2
-12 -4 0 -6 -7 -18 -15 -26 -8 -9 -15 -14 -15 -11 0 6 127 244 199 372 139
250 219 473 352 980 40 152 114 372 158 469 72 156 102 215 151 296 29 47 53
90 54 95 3 19 45 81 68 101 22 19 23 19 8 -1 -11 -15 -7 -14 13 4 15 14 27 30
27 37 0 8 48 62 108 121 214 216 445 343 737 410 168 38 410 52 575 33z
m-2274 -1405 c38 -19 96 -59 128 -89 59 -54 59 -55 53 -100 -4 -25 -16 -86
-28 -136 l-22 -91 -48 47 c-26 26 -46 51 -43 55 2 4 -1 11 -7 15 -8 4 -9 3 -5
-4 15 -25 -8 -10 -67 42 -79 69 -135 106 -158 106 -29 0 -24 -48 11 -100 16
-25 30 -55 30 -66 0 -42 105 -165 208 -245 l33 -25 -18 -72 c-19 -83 -24 -85
-105 -49 -227 101 -371 298 -372 507 -1 64 3 82 26 120 32 55 73 94 113 108
17 6 69 11 116 11 79 1 92 -2 155 -34z m4403 2 c23 -15 39 -32 36 -37 -3 -5 0
-7 8 -4 16 6 39 -18 35 -37 -2 -8 3 -13 10 -11 23 4 46 -68 46 -148 -1 -61 -7
-92 -35 -164 -29 -76 -44 -101 -103 -163 -38 -40 -73 -73 -78 -73 -6 0 -4 8 3
18 13 15 12 16 -3 3 -10 -7 -16 -17 -13 -21 7 -11 -29 -33 -114 -69 -99 -42
-118 -41 -130 7 -36 135 -35 131 -10 158 13 14 29 22 38 19 9 -3 12 -3 8 1 -8
8 11 34 25 34 5 0 6 -5 2 -12 -4 -7 -3 -8 5 -4 6 4 9 11 6 16 -3 4 10 18 29
29 18 12 53 42 77 69 24 26 48 46 52 44 5 -1 6 2 3 7 -4 5 7 31 24 57 16 26
30 55 30 65 0 26 -29 44 -71 43 -31 -1 -44 -8 -61 -30 -49 -64 -173 -184 -185
-180 -7 3 -12 0 -10 -7 1 -7 -4 -11 -11 -9 -6 1 -11 -1 -10 -5 2 -5 -1 -9 -6
-11 -5 -2 -22 50 -38 114 -33 134 -35 125 53 213 94 93 164 122 285 118 48 -2
71 -9 103 -30z m-1844 -411 c321 -46 511 -109 697 -232 90 -60 241 -203 234
-221 -3 -8 -2 -12 3 -9 13 8 73 -61 196 -224 59 -80 121 -160 137 -178 16 -18
25 -38 22 -44 -4 -6 -3 -8 4 -4 11 7 171 -161 227 -239 19 -28 33 -56 30 -62
-2 -7 0 -12 6 -10 18 4 96 -151 133 -263 52 -157 61 -222 60 -425 -1 -165 -3
-187 -28 -270 -57 -191 -148 -339 -305 -495 -53 -53 -132 -120 -176 -149 -277
-182 -674 -299 -1175 -345 -521 -48 -767 -42 -1335 30 -698 89 -1154 336
-1374 744 -135 251 -158 581 -62 881 60 186 197 413 326 539 42 41 111 118
153 170 323 399 428 499 653 619 151 81 304 130 539 175 153 30 241 34 580 32
249 -2 366 -8 455 -20z m-3105 -2571 c83 -43 136 -255 90 -357 -16 -35 -32
-27 -70 32 -35 54 -45 60 -101 60 -34 0 -45 -7 -91 -55 -28 -30 -57 -55 -64
-55 -13 0 -24 53 -24 116 0 91 55 216 112 253 39 25 106 28 148 6z m5394 -15
c64 -57 103 -179 90 -286 -10 -84 -16 -86 -76 -21 -50 53 -57 57 -98 57 -41 0
-48 -4 -96 -56 -29 -31 -57 -53 -63 -50 -5 4 -15 30 -21 60 -19 91 9 208 66
276 33 39 55 49 116 49 39 1 53 -4 82 -29z"/>
<path d="M3834 7038 l-19 -23 23 19 c21 18 27 26 19 26 -2 0 -12 -10 -23 -22z"/>
<path d="M5698 5843 c7 -3 16 -2 19 1 4 3 -2 6 -13 5 -11 0 -14 -3 -6 -6z"/>
<path d="M4069 5263 c-50 -43 -89 -135 -89 -213 0 -80 23 -132 78 -182 96 -86
194 -42 237 106 35 119 -1 261 -75 298 -53 27 -112 23 -151 -9z"/>
<path d="M5985 5246 c-74 -77 -85 -212 -27 -326 47 -93 113 -120 192 -80 135
69 140 314 9 424 -24 21 -41 26 -81 26 -48 0 -55 -3 -93 -44z"/>
<path d="M4881 5125 c-74 -21 -189 -83 -232 -126 -53 -53 -81 -120 -87 -203
-7 -118 5 -144 123 -265 57 -58 103 -110 103 -114 0 -5 4 -12 8 -15 4 -4 4 -1
0 6 -10 17 9 15 24 -4 8 -8 58 -43 113 -76 l99 -61 -7 -51 c-13 -104 -72 -187
-191 -272 -128 -92 -279 -139 -434 -138 -79 0 -110 6 -188 32 -51 18 -101 32
-112 32 -31 0 -60 -36 -60 -74 0 -79 150 -148 372 -171 l56 -6 6 -97 c16 -269
52 -416 128 -524 77 -109 167 -137 381 -118 84 8 156 8 252 0 221 -17 328 12
399 109 77 105 114 247 123 478 l6 142 30 11 c16 5 51 10 76 10 119 1 253 50
310 115 38 44 38 79 0 107 -25 19 -26 19 -139 -12 -197 -54 -266 -51 -459 14
-122 42 -141 52 -224 121 -45 37 -67 62 -63 71 3 8 2 12 -4 9 -5 -3 -16 8 -25
24 -15 30 -45 142 -45 171 0 9 29 32 64 53 78 44 328 275 362 334 30 49 42
157 25 218 -21 78 -71 146 -146 197 -107 73 -137 80 -380 84 -165 3 -221 1
-264 -11z m169 -1624 l0 -439 -50 -11 c-108 -23 -220 -5 -280 46 -68 56 -115
196 -130 386 -14 166 -18 151 48 171 130 41 267 129 357 228 28 31 51 56 53
57 1 1 2 -197 2 -438z m225 330 c56 -59 142 -108 269 -151 l80 -26 -3 -110
c-9 -405 -60 -497 -276 -499 -49 0 -107 4 -128 8 l-38 8 3 307 c1 169 4 366 6
437 4 125 4 129 20 105 9 -14 39 -49 67 -79z"/>
<path d="M3698 4473 c6 -2 18 -2 25 0 6 3 1 5 -13 5 -14 0 -19 -2 -12 -5z"/>
<path d="M3635 4449 c-131 -22 -301 -85 -469 -175 -64 -34 -68 -38 -46 -46 15
-5 43 -3 79 7 410 109 500 123 680 107 69 -7 191 -23 271 -37 171 -29 186 -30
194 -9 9 24 -12 54 -48 69 -36 15 -249 68 -340 84 -69 13 -248 13 -321 0z"/>
<path d="M6225 4441 c-273 -58 -360 -98 -326 -151 8 -12 32 -10 175 13 256 42
372 51 490 38 122 -14 246 -40 386 -80 103 -30 170 -39 170 -23 0 13 -136 88
-231 128 -152 64 -255 86 -424 90 -119 3 -169 0 -240 -15z"/>
<path d="M6558 4323 c7 -3 16 -2 19 1 4 3 -2 6 -13 5 -11 0 -14 -3 -6 -6z"/>
<path d="M3805 4109 c-147 -15 -276 -52 -421 -123 -120 -59 -204 -115 -204
-137 0 -15 21 -11 136 25 243 76 329 96 484 111 160 17 315 45 385 69 l40 14
-29 11 c-82 32 -249 45 -391 30z"/>
<path d="M6153 4110 c-34 -5 -76 -16 -94 -25 l-33 -17 35 -15 c49 -21 220 -51
390 -68 145 -16 197 -28 463 -109 111 -34 146 -39 146 -19 0 25 -244 151 -381
197 -147 49 -391 75 -526 56z"/>
</g>
</svg>
