<?xml version="1.0" standalone="no"?>
<svg version="1.0" xmlns="http://www.w3.org/2000/svg" width="1024pt" height="1024pt" viewBox="0 0 1024 1024">
  <circle cx="512" cy="512" r="512" fill="#F9F6EE"/>

  <defs>
    <clipPath id="dibujo_coipo">
      <path d="M4966 8570 c-143 -37 -296 -139 -385 -257 -87 -116 -124 -327 -84 -479 l19 -72 -96 -47 c-309 -153 -580 -400 -790 -720 -99 -152 -221 -424 -290 -647 l-23 -76 -48 45 c-60 57 -96 79 -176 109 -277 104 -518 -3 -578 -257 -62 -265 92 -552 375 -698 41 -21 92 -44 113 -51 20 -6 37 -17 37 -24 0 -27 -291 -575 -374 -704 -13 -21 -32 -62 -41 -92 -10 -30 -24 -63 -33 -72 -11 -14 -12 -21 -3 -32 10 -11 4 -30 -28 -93 -127 -251 -201 -564 -201 -856 l0 -105 -31 -12 c-46 -19 -112 -89 -142 -151 -59 -119 -68 -252 -26 -365 33 -88 82 -115 154 -84 29 12 33 11 62 -19 43 -43 93 -43 135 -1 27 28 31 29 51 15 51 -36 121 -1 152 77 22 57 30 168 16 243 -24 130 -119 265 -218 313 -35 17 -36 21 -33 127 2 91 31 288 56 389 29 116 119 360 160 437 19 36 38 57 56 63 15 5 30 7 33 5 3 -3 -6 -33 -19 -65 -46 -112 -59 -219 -53 -424 8 -311 62 -489 208 -695 295 -413 750 -627 1534 -720 72 -9 159 -20 195 -25 111 -17 660 -24 841 -11 895 65 1457 290 1766 705 178 240 237 414 249 731 7 196 -7 315 -54 458 -16 48 -28 87 -25 87 2 0 27 -14 57 -30 63 -36 80 -67 162 -291 75 -208 124 -468 124 -656 l0 -68 -51 -30 c-181 -106 -265 -399 -164 -571 33 -56 89 -77 130 -50 25 17 27 16 54 -13 41 -44 100 -44 144 0 30 30 31 31 58 15 41 -24 67 -20 104 17 49 49 69 126 63 247 -4 82 -10 108 -36 165 -40 84 -78 133 -131 165 -29 18 -41 32 -41 50 -2 101 -23 340 -35 410 -35 191 -102 389 -187 552 -32 63 -38 80 -29 97 10 17 -4 45 -92 193 -222 374 -289 489 -332 580 -19 40 -35 80 -35 89 0 12 19 24 63 38 97 32 184 89 267 172 89 90 141 174 176 286 23 72 26 96 22 186 -3 92 -7 110 -36 169 -38 78 -101 140 -180 176 -82 38 -220 43 -312 12 -84 -28 -157 -70 -217 -124 l-47 -43 -32 96 c-77 236 -203 500 -323 681 -136 205 -350 439 -483 528 -81 55 -254 147 -325 174 -41 16 -42 17 -33 45 13 38 28 188 23 238 -15 162 -76 298 -177 392 -67 64 -173 121 -271 147 -99 27 -246 29 -339 6z" transform="translate(0,1024) scale(0.1,-0.1)"/>
    </clipPath>
  </defs>

  <g clip-path="url(#dibujo_coipo)">
    <rect x="0" y="400" width="1024" height="624" fill="#C19A6B"/>
    <rect x="0" y="0" width="1024" height="480" fill="#ADD8E6"/>
  </g>

  <g transform="translate(0,1024) scale(0.1,-0.1)" fill="#000000">
    <path d="M4966 8570 c-143 -37 -296 -139 -385 -257 -87 -116 -124 -327 -84 -479 l19 -72 -96 -47 c-309 -153 -580 -400 -790 -720 -99 -152 -221 -424 -290 -647 l-23 -76 -48 45 c-60 57 -96 79 -176 109 -277 104 -518 -3 -578 -257 -62 -265 92 -552 375 -698 41 -21 92 -44 113 -51 20 -6 37 -17 37 -24 0 -27 -291 -575 -374 -704 -13 -21 -32 -62 -41 -92 -10 -30 -24 -63 -33 -72 -11 -14 -12 -21 -3 -32 10 -11 4 -30 -28 -93 -127 -251 -201 -564 -201 -856 l0 -105 -31 -12 c-46 -19 -112 -89 -142 -151 -59 -119 -68 -252 -26 -365 33 -88 82 -115 154 -84 29 12 33 11 62 -19 43 -43 93 -43 135 -1 27 28 31 29 51 15 51 -36 121 -1 152 77 22 57 30 168 16 243 -24 130 -119 265 -218 313 -35 17 -36 21 -33 127 2 91 31 288 56 389 29 116 119 360 160 437 19 36 38 57 56 63 15 5 30 7 33 5 3 -3 -6 -33 -19 -65 -46 -112 -59 -219 -53 -424 8 -311 62 -489 208 -695 295 -413 750 -627 1534 -720 72 -9 159 -20 195 -25 111 -17 660 -24 841 -11 895 65 1457 290 1766 705 178 240 237 414 249 731 7 196 -7 315 -54 458 -16 48 -28 87 -25 87 2 0 27 -14 57 -30 63 -36 80 -67 162 -291 75 -208 124 -468 124 -656 l0 -68 -51 -30 c-181 -106 -265 -399 -164 -571 33 -56 89 -77 130 -50 25 17 27 16 54 -13 41 -44 100 -44 144 0 30 30 31 31 58 15 41 -24 67 -20 104 17 49 49 69 126 63 247 -4 82 -10 108 -36 165 -40 84 -78 133 -131 165 -29 18 -41 32 -41 50 -2 101 -23 340 -35 410 -35 191 -102 389 -187 552 -32 63 -38 80 -29 97 10 17 -4 45 -92 193 -222 374 -289 489 -332 580 -19 40 -35 80 -35 89 0 12 19 24 63 38 97 32 184 89 267 172 89 90 141 174 176 286 23 72 26 96 22 186 -3 92 -7 110 -36 169 -38 78 -101 140 -180 176 -82 38 -220 43 -312 12 -84 -28 -157 -70 -217 -124 l-47 -43 -32 96 c-77 236 -203 500 -323 681 -136 205 -350 439 -483 528 -81 55 -254 147 -325 174 -41 16 -42 17 -33 45 13 38 28 188 23 238 -15 162 -76 298 -177 392 -67 64 -173 121 -271 147 -99 27 -246 29 -339 6z"/>
  </g>
</svg>
